<svg width="130" height="115" viewBox="0 0 130 115" fill="none" xmlns="http://www.w3.org/2000/svg">
<path d="M65.6714 73.911C64.9537 71.5189 64.7005 69.6532 63.8584 68.1185C62.3115 65.2894 60.3328 62.705 58.6887 59.9353C55.8064 55.0914 53.1392 50.1161 50.1875 45.3146C48.5187 42.5981 46.7478 39.8391 44.511 37.6124C41.8876 35.0024 38.1891 34.9075 35.6029 36.6491C32.7475 38.5743 31.7612 42.2644 33.5315 46.0054C34.6621 48.4026 36.0596 50.8464 37.914 52.6967C43.8118 58.5769 49.942 64.2293 56.0681 69.8748C57.6361 71.3186 59.4152 72.6241 61.2948 73.6107C62.274 74.1372 63.6997 73.8192 65.6714 73.911Z" fill="#F17732"/>
<path d="M104.015 70.0955C104.633 70.3278 105.383 70.8701 106.04 70.7742C106.717 70.6657 107.612 70.0714 107.859 69.4627C108.46 67.9808 108.844 66.3932 109.132 64.8063C110.815 55.5159 112.482 46.2159 114.047 36.9027C114.352 35.0772 114.448 33.1125 114.122 31.3003C113.502 27.8669 110.531 25.3267 107.472 25.1555C104.454 24.9882 101.425 27.3625 100.387 30.7504C100.149 31.5153 99.9476 32.3245 99.9205 33.1225C99.5507 44.7655 100.141 56.3269 102.993 67.6891C103.179 68.4618 103.611 69.1698 104.015 70.0955Z" fill="#F17732"/>
<path d="M16.7668 83.6053C17.8258 84.3404 19.4348 85.9305 21.3658 86.7047C28.3698 89.527 35.4756 92.096 42.5625 94.6958C43.5571 95.0604 44.6779 95.1478 45.7481 95.1993C47.1017 95.2779 48.6828 95.1985 48.977 93.5893C49.1349 92.74 48.448 91.6157 47.8961 90.7901C47.4741 90.1615 46.6635 89.7703 45.9905 89.3237C39.4565 85.0233 32.9541 80.6656 26.3428 76.4886C24.5618 75.3658 22.4988 74.548 20.4528 74.0536C18.5678 73.604 16.6708 74.1337 15.5588 76.0423C14.5338 77.8121 14.4638 79.6176 15.4508 81.4356C15.7108 81.9246 16.0118 82.3699 16.7668 83.6053Z" fill="#F17732"/>
</svg>
