<svg width="65" height="79" viewBox="0 0 65 79" fill="none" xmlns="http://www.w3.org/2000/svg">
<path d="M50.9937 48.3474C43.0239 46.7353 35.9954 41.6928 32.0276 34.6291C28.0515 27.552 27.6729 18.7009 30.6616 11.2017C31.8018 8.33621 33.7781 3.88786 37.6197 5.69582C41.1399 7.3511 40.7744 11.9444 40.542 15.1541C39.9417 23.4707 37.2814 31.5788 33.071 38.7769C28.3016 46.9284 21.4926 53.7788 13.3134 58.5779C12.406 59.1103 11.7585 57.6116 12.6594 57.0867C25.3847 49.662 34.6838 36.7935 37.9046 22.5162C38.6566 19.1843 39.1382 15.7334 39.161 12.313C39.1746 10.3955 38.9636 7.83871 36.9051 6.94689C34.4847 5.9003 33.255 8.81898 32.4395 10.5824C29.3541 17.2585 29.2192 25.1678 32.0939 31.9332C35.4274 39.7782 42.737 45.6347 51.087 47.4497C51.6515 47.5753 51.5685 48.4635 50.9937 48.3474Z" fill="#111821"/>
<path d="M51.3349 48.7245C42.5007 47.6316 34.4288 42.3032 30.2444 34.4612C26.2757 27.0214 25.7364 16.9667 29.9635 9.49407C30.8335 7.95492 31.9898 6.49379 33.5431 5.58029C34.7174 4.89117 36.6187 4.21852 37.901 5.02044C39.3702 5.93596 39.8714 8.60292 40.2213 10.1646C40.6746 12.1866 40.7991 14.273 40.6831 16.3367C40.175 25.3156 35.4702 33.915 30.3779 41.1347C24.1255 49.9966 15.8833 57.75 6.37405 63.0893C5.69812 63.4684 5.0048 62.3344 5.67055 61.9208C13.0408 57.3544 19.6883 51.9608 25.3201 45.3683C30.6614 39.1128 35.3868 31.8549 37.9619 24.0216C39.1605 20.3731 39.8585 16.4717 39.4655 12.6284C39.2895 10.9044 38.9853 8.89326 38.1593 7.34537C36.4914 4.22976 33.2918 6.72117 31.8671 8.57513C27.0757 14.795 27.2494 24.6358 30.0409 31.6024C33.5739 40.4156 41.9977 46.6971 51.418 47.9817C51.8944 48.0459 51.8165 48.7839 51.3349 48.7245Z" fill="#111821"/>
<path d="M10.2153 64.3216C9.52491 62.0107 8.55716 59.8828 7.48844 57.7254C7.85159 57.8163 8.21474 57.9074 8.57785 57.9982C6.2464 59.8841 3.86267 61.7126 1.47899 63.5407C1.41224 63.0985 1.34845 62.6569 1.2817 62.2146C4.33951 63.1511 7.46312 63.724 10.655 63.9617C10.3916 64.3159 10.1312 64.671 9.86788 65.0252C9.21778 63.7051 8.51476 62.4151 7.73942 61.1613C8.18568 61.034 8.62894 60.906 9.07403 60.7818C8.8919 61.7399 8.76516 62.6957 8.68866 63.6714C8.63472 64.3577 7.52043 64.586 7.29361 63.8847C6.86094 62.5411 6.76357 61.2642 7.03232 59.873C7.15207 59.2528 8.10979 58.9631 8.36553 59.669C8.77878 60.8122 11.2244 65.3993 8.10434 64.7227C5.29246 64.1123 5.63958 60.9236 6.79553 59.0762C7.21224 58.4132 8.22753 59.0364 7.97019 59.7278C7.81392 60.1478 7.65652 60.5701 7.50028 60.9898C7.07479 60.8237 6.64933 60.6576 6.22383 60.4915C6.7002 59.635 7.15173 58.772 7.57131 57.8865C7.9332 57.1205 9.01945 57.5647 8.7916 58.3628C8.15546 60.5857 6.33202 61.9047 4.45597 63.0985C4.20482 62.6822 3.95363 62.2659 3.70544 61.851C4.88344 61.4104 6.06144 60.9698 7.2394 60.5293C8.15263 60.1886 8.64595 61.4135 7.8325 61.8814C6.73692 62.5097 5.62342 62.9857 4.41551 63.3466C4.3421 62.878 4.26873 62.4094 4.19832 61.9418C4.82647 62.0786 5.38319 62.1032 6.0189 62.006C5.9655 62.4759 5.91211 62.9459 5.8617 63.4172C4.89953 63.0211 4.00172 62.85 2.97453 62.8415C2.22566 62.8372 2.09897 61.694 2.75912 61.4408C3.45633 61.1714 4.15418 60.9091 4.85318 60.6437C5.04311 61.0765 5.23304 61.5097 5.42478 61.9465C4.50957 62.2494 3.62771 62.6059 2.75615 63.0137C1.92692 63.401 1.37137 62.1177 2.18994 61.723C4.1664 60.775 5.90959 59.5462 7.48129 58.0273C8.06133 57.4682 9.05133 58.4135 8.50397 59.0188C7.65193 59.9624 6.72712 60.7626 5.64125 61.4354C5.39483 61.0242 5.14728 60.6164 4.90086 60.2052C6.09111 59.536 7.62263 58.2042 9.06604 58.5141C9.65049 58.6407 9.94442 59.2156 9.60179 59.7352C9.09193 60.5043 8.40668 60.9071 7.49644 61.0424C6.50609 61.1906 6.26814 59.666 7.25733 59.5208C7.77077 59.4911 8.14031 59.2562 8.369 58.8173C8.48086 59.2062 8.59153 59.5982 8.7034 59.9871C7.93789 59.7491 6.10741 61.1809 5.4814 61.5286C4.76838 61.9239 4.03589 60.7342 4.74098 60.2983C5.72054 59.6957 6.57582 59.0107 7.34758 58.1579C7.6879 58.4871 8.02998 58.8203 8.37026 59.1495C6.70698 60.7447 4.83671 62.0185 2.75141 63.0083C2.56326 62.5796 2.37333 62.1464 2.1852 61.7176C3.05855 61.3139 3.94516 60.9628 4.85141 60.6397C5.71054 60.3318 6.28247 61.591 5.42297 61.9425C4.73115 62.2244 4.04048 62.5029 3.34684 62.7804C3.27641 62.3128 3.20187 61.8473 3.13144 61.3797C4.29544 61.3871 5.33561 61.6039 6.4059 62.0455C7.08085 62.3223 6.98096 63.3395 6.24871 63.4567C5.47402 63.5772 4.80768 63.5708 4.04436 63.405C3.41621 63.2679 3.03305 62.2382 3.82714 61.9999C5.03624 61.6359 6.15094 61.1572 7.24532 60.5316C7.44243 60.981 7.63954 61.4303 7.83842 61.8837C6.66158 62.3213 5.48062 62.7605 4.30381 63.1981C3.5671 63.4725 2.79696 62.4033 3.55329 61.9506C5.24577 60.9357 6.96266 59.8591 7.58431 57.8882C7.99204 58.0472 8.39684 58.2052 8.80457 58.3645C8.39504 59.2508 7.9689 60.1268 7.51621 60.9928C7.11655 61.7507 5.92136 61.3314 6.23979 60.4945C6.39899 60.0759 6.56231 59.6555 6.72154 59.2369C7.11311 59.4543 7.50467 59.6714 7.8962 59.8885C7.50457 60.4975 7.24168 61.1427 7.37729 61.8763C7.41378 62.0765 8.01868 63.7514 8.56707 63.3328C8.47522 63.564 8.38452 63.7929 8.29264 64.0245C8.2405 62.8226 7.47816 61.3638 7.09681 60.2264C7.53983 60.1593 7.98697 60.09 8.42999 60.0225C8.2146 61.1505 8.27307 62.216 8.64064 63.3105C8.17526 63.3827 7.71101 63.4519 7.24559 63.5242C7.30794 62.5499 7.42463 61.5934 7.59081 60.6326C7.69083 60.0624 8.54529 59.6545 8.92542 60.2531C9.78798 61.6056 10.5753 62.9928 11.2885 64.429C11.5533 64.9658 11.0523 65.5319 10.5014 65.4928C7.17096 65.2521 3.91092 64.6359 0.719064 63.6673C0.143188 63.4931 0.0832189 62.6808 0.521774 62.3412C2.89956 60.5104 5.28144 58.6782 7.70617 56.9098C8.08198 56.6336 8.59276 56.7653 8.79559 57.1829C9.84678 59.3672 10.5923 61.7197 11.2304 64.0508C11.3779 64.5995 10.3848 64.8922 10.2153 64.3216Z" fill="#111821"/>
</svg>
